<?xml version="1.0" encoding="utf-8"?>
<!-- Generator: Adobe Illustrator 24.1.2, SVG Export Plug-In . SVG Version: 6.00 Build 0)  -->
<svg version="1.1" id="Layer_1" xmlns="http://www.w3.org/2000/svg" xmlns:xlink="http://www.w3.org/1999/xlink" x="0px" y="0px"
	 viewBox="0 0 16 16" style="enable-background:new 0 0 16 16;" xml:space="preserve" fill="rgb(247, 80, 122)">
<style type="text/css">
	.st0{fill:rgb(247, 80, 122);}
</style>
<g>
	<path class="st0" d="M8,14.4C0.1,9.1,0.2,5,0.7,3.5c0.5-1.8,2.2-3,4.2-3c1,0,1.9,0.3,2.6,1c0.1,0,0.1,0.1,0.2,0.2L8,2l0.4-0.4
		c0,0,0.1-0.1,0.1-0.1c0.7-0.7,1.6-1,2.6-1c1.9,0,3.6,1.2,4.2,3C15.8,5,15.9,9.1,8,14.4z"/>
	<path d="M11.2,1L11.2,1c1.7,0,3.2,1.1,3.7,2.6c0.9,2.8-1.7,6.6-6.8,10.1C2.9,10.3,0.3,6.5,1.2,3.7C1.6,2.1,3.1,1,4.8,1
		c0.6,0,1.5,0.2,2.3,0.9c0,0,0.1,0.1,0.1,0.1L8,2.8L8.7,2c0,0,0.1-0.1,0.1-0.1C9.6,1.2,10.5,1,11.2,1 M11.2,0c-1.1,0-2.1,0.4-3,1.1
		C8.1,1.2,8.1,1.3,8,1.3C7.9,1.3,7.9,1.2,7.8,1.1C7,0.4,5.9,0,4.8,0C0.2,0-4.5,6.8,8,15C20.5,6.8,15.8,0,11.2,0L11.2,0z"/>
</g>
</svg>
